<?xml version="1.0" encoding="UTF-8"?>
<svg width="100px" height="18px" viewBox="0 0 100 18" version="1.1" xmlns="http://www.w3.org/2000/svg" xmlns:xlink="http://www.w3.org/1999/xlink">
    <!-- Generator: Sketch 47.1 (45422) - http://www.bohemiancoding.com/sketch -->
    <title>Group 31</title>
    <desc>Created with Sketch.</desc>
    <defs></defs>
    <g id="Page-1" stroke="none" stroke-width="1" fill="none" fill-rule="evenodd">
        <g id="Group-31" transform="translate(0.000000, -2.000000)">
            <rect id="Rectangle-3-Copy-2" x="0" y="0" width="100" height="22"></rect>
            <g id="Page-1" transform="translate(0.000000, 2.000000)" fill="#FFFFFF">
                <polygon id="Fill-1" points="7.983 14.489 9.979 14.489 9.979 0.019 7.983 0.019"></polygon>
                <polygon id="Fill-2" points="3.992 14.489 5.988 14.489 5.988 5.009 3.992 5.009"></polygon>
                <polygon id="Fill-3" points="0 14.489 1.996 14.489 1.996 9.998 0 9.998"></polygon>
                <polygon id="Fill-4" points="11.9745 0.0189 11.9745 14.4889 13.9705 14.4889 13.9705 2.0139 17.4635 2.0139 17.4635 0.0189"></polygon>
                <polygon id="Fill-5" points="42.0075 0 38.8785 11.146 36.0665 0 34.4965 0 31.6765 11.146 28.5375 0 26.4015 0 30.7815 14.464 32.6495 14.464 35.2715 3.666 37.8755 14.464 39.7715 14.464 44.1435 0"></polygon>
                <g id="Group-19" transform="translate(45.000000, 0.000000)">
                    <g id="Group-8">
                        <path d="M2.0042,14.4638 L0.0372,14.4638 L0.0372,-0.0002 L2.0042,-0.0002 L2.0042,4.7778 C2.3222,4.3078 2.7342,3.9538 3.2412,3.7148 C3.7472,3.4768 4.3382,3.3578 5.0142,3.3578 C6.3382,3.3578 7.3682,3.7808 8.1032,4.6298 C8.8382,5.4768 9.2062,6.6658 9.2062,8.1948 L9.2062,14.4638 L7.2392,14.4638 L7.2392,8.8308 C7.2392,7.6188 7.0342,6.7188 6.6232,6.1298 C6.2122,5.5398 5.5842,5.2448 4.7362,5.2448 C4.2192,5.2448 3.7622,5.3638 3.3652,5.6028 C2.9672,5.8408 2.6502,6.1858 2.4112,6.6358 C2.2662,6.9078 2.1612,7.2378 2.0982,7.6298 C2.0352,8.0198 2.0042,8.6428 2.0042,9.4968 L2.0042,14.4638 Z" id="Fill-6"></path>
                    </g>
                    <path d="M12.907,8.9305 C12.907,10.0365 13.273,10.9635 14.005,11.7115 C14.737,12.4605 15.633,12.8345 16.692,12.8345 C17.659,12.8345 18.511,12.4585 19.25,11.7065 C19.989,10.9555 20.358,10.0765 20.358,9.0695 C20.358,7.9965 19.991,7.0775 19.26,6.3125 C18.528,5.5485 17.659,5.1655 16.652,5.1655 C15.619,5.1655 14.737,5.5295 14.005,6.2585 C13.273,6.9865 12.907,7.8775 12.907,8.9305 L12.907,8.9305 Z M20.258,14.4635 L20.258,13.1225 C19.755,13.6455 19.194,14.0415 18.574,14.3095 C17.955,14.5775 17.294,14.7115 16.593,14.7115 C14.95,14.7115 13.586,14.1635 12.5,13.0675 C11.414,11.9715 10.871,10.5995 10.871,8.9505 C10.871,8.1815 11.006,7.4535 11.278,6.7645 C11.55,6.0765 11.937,5.4705 12.44,4.9475 C12.99,4.3705 13.591,3.9455 14.243,3.6705 C14.895,3.3955 15.639,3.2585 16.473,3.2585 C17.222,3.2585 17.91,3.3905 18.54,3.6555 C19.169,3.9205 19.741,4.3215 20.258,4.8575 L20.258,3.5365 L22.245,3.5365 L22.245,14.4635 L20.258,14.4635 Z" id="Fill-9"></path>
                    <g id="Group-13" transform="translate(21.000000, 0.000000)">
                        <polygon id="Fill-11" points="6.6316 14.4638 4.5356 14.4638 4.5356 1.9468 0.8166 1.9468 0.8166 -0.0002 10.3506 -0.0002 10.3506 1.9468 6.6316 1.9468"></polygon>
                    </g>
                    <path d="M32.0325,8.9305 C32.0325,10.0365 32.3985,10.9635 33.1305,11.7115 C33.8625,12.4605 34.7585,12.8345 35.8175,12.8345 C36.7845,12.8345 37.6365,12.4585 38.3755,11.7065 C39.1145,10.9555 39.4825,10.0765 39.4825,9.0695 C39.4825,7.9965 39.1165,7.0775 38.3855,6.3125 C37.6535,5.5485 36.7845,5.1655 35.7775,5.1655 C34.7445,5.1655 33.8625,5.5295 33.1305,6.2585 C32.3985,6.9865 32.0325,7.8775 32.0325,8.9305 L32.0325,8.9305 Z M39.3835,14.4635 L39.3835,13.1225 C38.8805,13.6455 38.3195,14.0415 37.6995,14.3095 C37.0805,14.5775 36.4195,14.7115 35.7185,14.7115 C34.0755,14.7115 32.7115,14.1635 31.6255,13.0675 C30.5385,11.9715 29.9965,10.5995 29.9965,8.9505 C29.9965,8.1815 30.1315,7.4535 30.4035,6.7645 C30.6755,6.0765 31.0625,5.4705 31.5655,4.9475 C32.1155,4.3705 32.7165,3.9455 33.3685,3.6705 C34.0205,3.3955 34.7645,3.2585 35.5985,3.2585 C36.3475,3.2585 37.0355,3.3905 37.6645,3.6555 C38.2945,3.9205 38.8665,4.3215 39.3835,4.8575 L39.3835,3.5365 L41.3705,3.5365 L41.3705,14.4635 L39.3835,14.4635 Z" id="Fill-14"></path>
                    <g id="Group-18" transform="translate(43.000000, 3.000000)">
                        <path d="M2.5232,5.9305 C2.5232,7.0095 2.8852,7.9305 3.6112,8.6925 C4.3362,9.4535 5.2022,9.8345 6.2092,9.8345 C7.2352,9.8345 8.1162,9.4685 8.8512,8.7365 C9.5862,8.0055 9.9532,7.1165 9.9532,6.0695 C9.9532,4.9635 9.5892,4.0365 8.8612,3.2875 C8.1322,2.5395 7.2412,2.1655 6.1892,2.1655 C5.2212,2.1655 4.3692,2.5415 3.6302,3.2925 C2.8922,4.0445 2.5232,4.9235 2.5232,5.9305 M2.5832,10.1425 L2.5832,14.9995 L0.6162,14.9995 L0.6162,0.5365 L2.6032,0.5365 L2.6032,1.8775 C3.1062,1.3605 3.6672,0.9685 4.2862,0.7005 C4.9052,0.4315 5.5662,0.2985 6.2682,0.2985 C7.9172,0.2985 9.2842,0.8445 10.3712,1.9365 C11.4572,3.0295 12.0002,4.4005 12.0002,6.0495 C12.0002,6.8105 11.8642,7.5355 11.5922,8.2245 C11.3212,8.9135 10.9302,9.5265 10.4202,10.0625 C9.8712,10.6385 9.2702,11.0645 8.6172,11.3395 C7.9652,11.6145 7.2222,11.7515 6.3872,11.7515 C5.6462,11.7515 4.9582,11.6175 4.3262,11.3495 C3.6932,11.0805 3.1122,10.6785 2.5832,10.1425" id="Fill-16"></path>
                    </g>
                </g>
            </g>
        </g>
    </g>
</svg>